<mxfile host="app.diagrams.net" modified="2022-01-09T11:51:19.752Z" agent="5.0 (Windows NT 10.0; Win64; x64) AppleWebKit/537.36 (KHTML, like Gecko) Chrome/96.0.4664.93 Safari/537.36" etag="gSROKBquYwDJo19DQiNg" version="16.1.2" type="github">
  <diagram id="r9lRFPLfuSYPDfFIhGvF" name="Page-1">
    <mxGraphModel dx="782" dy="475" grid="0" gridSize="10" guides="1" tooltips="1" connect="1" arrows="1" fold="1" page="1" pageScale="1" pageWidth="827" pageHeight="1169" math="0" shadow="0">
      <root>
        <mxCell id="0" />
        <mxCell id="1" parent="0" />
        <mxCell id="C6PIosFm7N0TH4TpKUKc-1" value="«interface»&lt;br&gt;&lt;b&gt;Map&lt;/b&gt;" style="html=1;rounded=1;fillColor=#ffe6cc;strokeColor=#d79b00;" vertex="1" parent="1">
          <mxGeometry x="330" y="80" width="110" height="50" as="geometry" />
        </mxCell>
        <mxCell id="C6PIosFm7N0TH4TpKUKc-2" value="«interface»&lt;br&gt;&lt;b&gt;SortedMap&lt;/b&gt;" style="html=1;rounded=1;fillColor=#f5f5f5;strokeColor=#666666;fontColor=#333333;" vertex="1" parent="1">
          <mxGeometry x="170" y="160" width="110" height="50" as="geometry" />
        </mxCell>
        <mxCell id="C6PIosFm7N0TH4TpKUKc-3" value="Extends" style="endArrow=block;endFill=0;html=1;exitX=0.5;exitY=0;exitDx=0;exitDy=0;entryX=0.5;entryY=1;entryDx=0;entryDy=0;rounded=0;" edge="1" parent="1" source="C6PIosFm7N0TH4TpKUKc-2" target="C6PIosFm7N0TH4TpKUKc-1">
          <mxGeometry width="160" relative="1" as="geometry">
            <mxPoint x="320" y="250" as="sourcePoint" />
            <mxPoint x="480" y="250" as="targetPoint" />
          </mxGeometry>
        </mxCell>
        <mxCell id="C6PIosFm7N0TH4TpKUKc-5" value="TreeMap" style="html=1;rounded=1;fillColor=#d5e8d4;strokeColor=#82b366;" vertex="1" parent="1">
          <mxGeometry x="190" y="260" width="70" height="40" as="geometry" />
        </mxCell>
        <mxCell id="C6PIosFm7N0TH4TpKUKc-6" value="" style="endArrow=block;dashed=1;endFill=0;html=1;rounded=0;exitX=0.5;exitY=0;exitDx=0;exitDy=0;entryX=0.5;entryY=1;entryDx=0;entryDy=0;" edge="1" parent="1" source="C6PIosFm7N0TH4TpKUKc-5" target="C6PIosFm7N0TH4TpKUKc-2">
          <mxGeometry width="160" relative="1" as="geometry">
            <mxPoint x="320" y="250" as="sourcePoint" />
            <mxPoint x="480" y="250" as="targetPoint" />
          </mxGeometry>
        </mxCell>
        <mxCell id="C6PIosFm7N0TH4TpKUKc-11" style="edgeStyle=none;shape=connector;rounded=0;orthogonalLoop=1;jettySize=auto;html=1;exitX=0.5;exitY=0;exitDx=0;exitDy=0;dashed=1;labelBackgroundColor=default;fontFamily=Helvetica;fontSize=11;fontColor=default;endArrow=block;endFill=0;strokeColor=default;entryX=0.5;entryY=1;entryDx=0;entryDy=0;" edge="1" parent="1" source="C6PIosFm7N0TH4TpKUKc-7" target="C6PIosFm7N0TH4TpKUKc-1">
          <mxGeometry relative="1" as="geometry">
            <mxPoint x="380" y="130" as="targetPoint" />
          </mxGeometry>
        </mxCell>
        <mxCell id="C6PIosFm7N0TH4TpKUKc-7" value="HashTable" style="html=1;rounded=1;fillColor=#d5e8d4;strokeColor=#82b366;" vertex="1" parent="1">
          <mxGeometry x="290" y="260" width="70" height="40" as="geometry" />
        </mxCell>
        <mxCell id="C6PIosFm7N0TH4TpKUKc-12" style="edgeStyle=none;shape=connector;rounded=0;orthogonalLoop=1;jettySize=auto;html=1;exitX=0.5;exitY=0;exitDx=0;exitDy=0;dashed=1;labelBackgroundColor=default;fontFamily=Helvetica;fontSize=11;fontColor=default;endArrow=block;endFill=0;strokeColor=default;" edge="1" parent="1" source="C6PIosFm7N0TH4TpKUKc-8">
          <mxGeometry relative="1" as="geometry">
            <mxPoint x="390" y="130" as="targetPoint" />
          </mxGeometry>
        </mxCell>
        <mxCell id="C6PIosFm7N0TH4TpKUKc-8" value="LinkedHashMap" style="html=1;rounded=1;fillColor=#d5e8d4;strokeColor=#82b366;" vertex="1" parent="1">
          <mxGeometry x="370" y="260" width="100" height="40" as="geometry" />
        </mxCell>
        <mxCell id="C6PIosFm7N0TH4TpKUKc-13" style="edgeStyle=none;shape=connector;rounded=0;orthogonalLoop=1;jettySize=auto;html=1;exitX=0.5;exitY=0;exitDx=0;exitDy=0;dashed=1;labelBackgroundColor=default;fontFamily=Helvetica;fontSize=11;fontColor=default;endArrow=block;endFill=0;strokeColor=default;" edge="1" parent="1" source="C6PIosFm7N0TH4TpKUKc-9">
          <mxGeometry relative="1" as="geometry">
            <mxPoint x="400" y="130" as="targetPoint" />
          </mxGeometry>
        </mxCell>
        <mxCell id="C6PIosFm7N0TH4TpKUKc-9" value="HashMap" style="html=1;rounded=1;fillColor=#d5e8d4;strokeColor=#82b366;" vertex="1" parent="1">
          <mxGeometry x="480" y="260" width="70" height="40" as="geometry" />
        </mxCell>
      </root>
    </mxGraphModel>
  </diagram>
</mxfile>
